<?xml version="1.0" standalone="no"?><!DOCTYPE svg PUBLIC "-//W3C//DTD SVG 1.1//EN" "http://www.w3.org/Graphics/SVG/1.1/DTD/svg11.dtd"><svg t="1589593616845" class="icon" viewBox="0 0 1024 1024" version="1.1" xmlns="http://www.w3.org/2000/svg" p-id="1287" xmlns:xlink="http://www.w3.org/1999/xlink" width="200" height="200"><defs><style type="text/css"></style></defs><path d="M456.704 581.632H389.12v-20.48h67.584v-24.576H389.12v-20.48h57.344l-81.92-129.024h47.104l36.864 65.536c12.288 24.576 18.432 32.768 28.672 53.248h2.048c10.24-18.432 16.384-30.72 28.672-53.248l36.864-65.536h45.056l-81.92 129.024h57.344v20.48h-67.584v24.576h67.584v20.48h-67.584v55.296h-38.912l-2.048-55.296z" fill="#ffffff" p-id="1288"></path><path d="M788.48 491.52c-12.288 0-20.48 8.192-20.48 20.48 0 141.312-114.688 256-256 256S256 653.312 256 512 370.688 256 512 256c12.288 0 20.48-8.192 20.48-20.48s-8.192-20.48-20.48-20.48c-163.84 0-296.96 133.12-296.96 296.96S348.16 808.96 512 808.96 808.96 675.84 808.96 512c0-12.288-8.192-20.48-20.48-20.48z" fill="#ffffff" p-id="1289"></path><path d="M618.496 440.32h167.936c12.288 0 20.48-8.192 20.48-20.48 0-104.448-86.016-190.464-190.464-190.464-12.288 0-20.48 8.192-20.48 20.48v169.984c2.048 12.288 10.24 20.48 22.528 20.48z m147.456-40.96h-126.976v-126.976c65.536 8.192 118.784 61.44 126.976 126.976z" fill="#ffffff" p-id="1290"></path></svg>