<?xml version="1.0" standalone="no"?><!DOCTYPE svg PUBLIC "-//W3C//DTD SVG 1.1//EN" "http://www.w3.org/Graphics/SVG/1.1/DTD/svg11.dtd"><svg t="1589594162943" class="icon" viewBox="0 0 1024 1024" version="1.1" xmlns="http://www.w3.org/2000/svg" p-id="3608" xmlns:xlink="http://www.w3.org/1999/xlink" width="200" height="200"><defs><style type="text/css"></style></defs><path d="M207.722 229.943h721.165c17.37 0 31.452-14.083 31.452-31.452 0-17.372-14.083-31.452-31.452-31.452H207.722c-17.372 0-31.452 14.082-31.452 31.452-0.001 17.369 14.081 31.452 31.452 31.452z" p-id="3609" fill="#ffffff"></path><path d="M98.257 198.49m-34.596 0a34.596 34.596 0 1 0 69.192 0 34.596 34.596 0 1 0-69.192 0Z" p-id="3610" fill="#ffffff"></path><path d="M928.887 480.548H207.722c-17.372 0-31.452 14.082-31.452 31.452s14.082 31.452 31.452 31.452h721.165c17.37 0 31.452-14.083 31.452-31.452 0-17.371-14.082-31.452-31.452-31.452z" p-id="3611" fill="#ffffff"></path><path d="M98.257 512m-34.596 0a34.596 34.596 0 1 0 69.192 0 34.596 34.596 0 1 0-69.192 0Z" p-id="3612" fill="#ffffff"></path><path d="M928.887 794.057H207.722c-17.372 0-31.452 14.083-31.452 31.454 0 17.37 14.082 31.452 31.452 31.452h721.165c17.37 0 31.452-14.083 31.452-31.452 0-17.371-14.082-31.454-31.452-31.454z" p-id="3613" fill="#ffffff"></path><path d="M98.257 825.51m-34.596 0a34.596 34.596 0 1 0 69.192 0 34.596 34.596 0 1 0-69.192 0Z" p-id="3614" fill="#ffffff"></path></svg>