<?xml version="1.0" standalone="no"?><!DOCTYPE svg PUBLIC "-//W3C//DTD SVG 1.1//EN" "http://www.w3.org/Graphics/SVG/1.1/DTD/svg11.dtd"><svg t="1589593830285" class="icon" viewBox="0 0 1024 1024" version="1.1" xmlns="http://www.w3.org/2000/svg" p-id="2734" xmlns:xlink="http://www.w3.org/1999/xlink" width="200" height="200"><defs><style type="text/css"></style></defs><path d="M810.6624 896 640 896c-47.1488 0-85.3312-38.1888-85.3312-85.3376L554.6688 640c0-47.1488 38.1824-85.3312 85.3312-85.3312l170.6624 0C857.8112 554.6688 896 592.8512 896 640l0 170.6624C896 857.8112 857.8112 896 810.6624 896L810.6624 896zM810.6624 640 640 640l0 170.6624 170.6624 0L810.6624 640 810.6624 640zM810.6624 469.3376 640 469.3376c-47.1488 0-85.3312-38.1888-85.3312-85.3312L554.6688 213.3312C554.6688 166.1888 592.8512 128 640 128l170.6624 0C857.8112 128 896 166.1888 896 213.3312L896 384C896 431.1488 857.8112 469.3376 810.6624 469.3376L810.6624 469.3376zM810.6624 213.3312 640 213.3312 640 384l170.6624 0L810.6624 213.3312 810.6624 213.3312zM384 896 213.3312 896C166.1888 896 128 857.8112 128 810.6624L128 640c0-47.1488 38.1888-85.3312 85.3312-85.3312L384 554.6688c47.1424 0 85.3376 38.1824 85.3376 85.3312l0 170.6624C469.3376 857.8112 431.1424 896 384 896L384 896zM384 640 213.3312 640l0 170.6624L384 810.6624 384 640 384 640zM384 469.3376 213.3312 469.3376C166.1888 469.3376 128 431.1488 128 384L128 213.3312C128 166.1888 166.1888 128 213.3312 128L384 128c47.1424 0 85.3376 38.1888 85.3376 85.3312L469.3376 384C469.3376 431.1488 431.1424 469.3376 384 469.3376L384 469.3376zM384 213.3312 213.3312 213.3312 213.3312 384 384 384 384 213.3312 384 213.3312zM384 213.3312" p-id="2735" fill="#ffffff"></path></svg>