<?xml version="1.0" standalone="no"?><!DOCTYPE svg PUBLIC "-//W3C//DTD SVG 1.1//EN" "http://www.w3.org/Graphics/SVG/1.1/DTD/svg11.dtd"><svg t="1587801742709" class="icon" viewBox="0 0 1024 1024" version="1.1" xmlns="http://www.w3.org/2000/svg" p-id="3856" xmlns:xlink="http://www.w3.org/1999/xlink" width="200" height="200"><defs><style type="text/css"></style></defs><path d="M605.090909 558.545455m46.545455 0l279.272727 0q46.545455 0 46.545454 46.545454l0 139.636364q0 46.545455-46.545454 46.545454l-279.272727 0q-46.545455 0-46.545455-46.545454l0-139.636364q0-46.545455 46.545455-46.545454Z" fill="#ffffff" p-id="3857"></path><path d="M884.363636 744.727273h-46.545454v162.909091a46.545455 46.545455 0 0 1-46.545455 46.545454H93.090909a46.545455 46.545455 0 0 1-46.545454-46.545454V349.090909a46.545455 46.545455 0 0 1 46.545454-46.545454h86.481455l388.096-227.74691a24.32 24.32 0 0 1 2.513454-2.164363 23.714909 23.714909 0 0 1 31.790546 8.261818L733.928727 302.545455H791.272727a46.545455 46.545455 0 0 1 46.545455 46.545454v162.909091h46.545454a46.545455 46.545455 0 0 1 46.545455 46.545455v139.636363a46.545455 46.545455 0 0 1-46.545455 46.545455zM574.277818 124.648727L271.173818 302.545455h409.018182zM791.272727 349.090909H93.090909v558.545455h698.181818v-162.909091h-186.181818a46.545455 46.545455 0 0 1-46.545454-46.545455v-139.636363a46.545455 46.545455 0 0 1 46.545454-46.545455h186.181818v-162.909091z m93.090909 209.454546H605.090909v139.636363h279.272727v-139.636363z" fill="#ffffff" p-id="3858"></path></svg>