<?xml version="1.0" standalone="no"?><!DOCTYPE svg PUBLIC "-//W3C//DTD SVG 1.1//EN" "http://www.w3.org/Graphics/SVG/1.1/DTD/svg11.dtd"><svg t="1587801685189" class="icon" viewBox="0 0 1039 1024" version="1.1" xmlns="http://www.w3.org/2000/svg" p-id="2151" xmlns:xlink="http://www.w3.org/1999/xlink" width="202.9296875" height="200"><defs><style type="text/css"></style></defs><path d="M331.714937 542.79947l-89.989547 0c-17.533328 0-31.747051-14.21577-31.747051-31.746028 0-17.533328 14.213723-31.746028 31.747051-31.746028l58.243519 0 0-58.244542c0-17.533328 14.213723-31.747051 31.746028-31.747051s31.746028 14.213723 31.746028 31.747051l0 89.99057C363.460965 528.5837 349.247242 542.79947 331.714937 542.79947z" p-id="2152" fill="#ffffff"></path><path d="M885.821941 59.35176 437.537078 59.35176c-75.854619 0-137.569192 61.711504-137.569192 137.569192l0 108.153232c-67.791989 13.780865-135.788639 29.376051-189.420117 57.977459-73.354682 39.124066-110.547769 99.009991-110.547769 177.997973l0 269.970688c0 46.679136 37.97694 84.657098 84.657098 84.657098l91.198072 0c27.285436 40.433898 73.520457 67.074651 125.862569 67.074651s98.577133-26.640754 125.861546-67.074651l198.22976 0c27.285436 40.433898 73.519434 67.074651 125.860523 67.074651s98.576109-26.640754 125.861546-67.074651l61.201897 0c46.681182 0 84.658122-37.977963 84.658122-84.657098L1023.391133 196.919928C1023.391133 121.063263 961.676559 59.35176 885.821941 59.35176zM301.717739 899.259998c-48.656163 0-88.240717-39.5866-88.240717-88.23867 0-48.656163 39.584554-88.239693 88.240717-88.239693 48.65514 0 88.240717 39.584554 88.240717 88.239693C389.958456 859.673397 350.372879 899.259998 301.717739 899.259998zM751.668545 899.259998c-48.65514 0-88.239693-39.5866-88.239693-88.23867 0-48.656163 39.585577-88.239693 88.239693-88.239693 48.656163 0 88.240717 39.584554 88.240717 88.239693C839.910285 859.673397 800.324708 899.259998 751.668545 899.259998zM959.89703 811.020304c0 11.668761-9.494235 21.164019-21.165042 21.164019l-36.836977 0c0.970094-6.921643 1.508353-13.979386 1.508353-21.164019 0-83.668585-68.068282-151.733796-151.733796-151.733796-83.665515 0-151.732773 68.066235-151.732773 151.733796 0 7.184633 0.536212 14.242376 1.50733 21.164019L451.943183 832.184323c0.970094-6.921643 1.508353-13.979386 1.508353-21.164019 0-83.668585-68.068282-151.733796-151.733796-151.733796-83.666538 0-151.733796 68.066235-151.733796 151.733796 0 7.184633 0.537236 14.242376 1.50733 21.164019L84.657098 832.184323c-11.668761 0-21.164019-9.494235-21.164019-21.164019L63.49308 541.049616C63.494103 425.432389 167.177534 396.352073 337.939709 362.202299l25.521257-5.105275L363.460965 196.919928c0-40.84629 33.230845-74.075089 74.076112-74.075089l448.284863 0c40.84322 0 74.075089 33.229822 74.075089 74.075089L959.89703 811.020304z" p-id="2153" fill="#ffffff"></path></svg>