<?xml version="1.0" standalone="no"?><!DOCTYPE svg PUBLIC "-//W3C//DTD SVG 1.1//EN" "http://www.w3.org/Graphics/SVG/1.1/DTD/svg11.dtd"><svg t="1587801870120" class="icon" viewBox="0 0 1024 1024" version="1.1" xmlns="http://www.w3.org/2000/svg" p-id="4870" xmlns:xlink="http://www.w3.org/1999/xlink" width="200" height="200"><defs><style type="text/css"></style></defs><path d="M147.6 420.4c9.9 0 17.9-8 17.9-17.9V224.2l357.7-122.8 336.3 126.3-0.1 174.8h0.1c0 9.9 8 17.9 17.9 17.9s17.9-8 17.9-17.9c0-0.2-0.1-0.4-0.1-0.7l0.1-186.1c0-7.3-4.4-13.9-11.2-16.6l-354-133.5c-4.2-1.7-8.8-1.8-13-0.2L141.3 195c-7 2.6-11.6 9.3-11.6 16.8v190.7c0 9.9 8 17.9 17.9 17.9zM877.4 527.9c-9.9 0-17.9 8-17.9 17.9h-0.2v66c0 0.8-0.8 76-58 138.3C699 861.6 544.1 910.7 510 923.2c-229.8-86.5-286.3-171.7-314.6-211-26.4-36.6-29.9-100.5-29.9-100.5v-65.9c0-9.9-8-17.9-17.9-17.9-9.9 0-17.9 8-17.9 17.9V612.5c0.1 3 3.9 75.2 37 120.9 30.1 41.8 92.2 134.8 337.1 225.6 2 0.7 4.1 1.1 6.2 1.1 1.9 0 3.9-0.3 5.8-1 8.5-2.9 192.5-54.6 311.9-184.9 66.9-73 67.4-159 67.4-162.6v-64.7c0-0.4 0.2-0.8 0.2-1.2 0-9.8-8-17.8-17.9-17.8z" fill="#ffffff" p-id="4871"></path><path d="M642.4 498.6c9.9 0 17.9-8 17.9-17.9 0-9.9-8-17.9-17.9-17.9h-76L621 355.3c4.5-8.8 1-19.6-7.8-24.1-8.9-4.5-19.6-1-24.1 7.9l-62.9 123.7h-32.4L429.5 339c-4.6-8.8-15.4-12.2-24.2-7.6-8.8 4.6-12.2 15.4-7.6 24.2l55.7 107.3h-70.8c-9.9 0-17.9 8-17.9 17.9 0 9.9 8 17.9 17.9 17.9h112v55.9h-112v-0.1c-9.9 0-17.9 8-17.9 17.9s8 17.9 17.9 17.9h112v86.9c0 9.9 8 17.9 17.9 17.9 9.9 0 17.9-8 17.9-17.9v-86.9h112c9.9 0 17.9-8 17.9-17.9s-8-17.9-17.9-17.9h-112v-55.9h112z" fill="#ffffff" p-id="4872"></path></svg>