<?xml version="1.0" standalone="no"?><!DOCTYPE svg PUBLIC "-//W3C//DTD SVG 1.1//EN" "http://www.w3.org/Graphics/SVG/1.1/DTD/svg11.dtd"><svg t="1589183764078" class="icon" viewBox="0 0 1024 1024" version="1.1" xmlns="http://www.w3.org/2000/svg" p-id="3986" xmlns:xlink="http://www.w3.org/1999/xlink" width="200" height="200"><defs><style type="text/css"></style></defs><path d="M902.095238 475.428571h46.32381C931.352381 251.12381 741.180952 73.142857 512 73.142857S92.647619 251.12381 75.580952 475.428571H121.904762c53.638095 0 97.52381 43.885714 97.523809 97.52381v195.047619c0 19.504762-7.314286 39.009524-17.066666 53.638095-14.628571 21.942857-36.571429 36.571429-60.952381 41.447619C234.057143 963.047619 365.714286 1024 512 1024s277.942857-60.952381 370.590476-160.914286c-26.819048-4.87619-48.761905-19.504762-60.952381-41.447619-9.752381-14.628571-17.066667-34.133333-17.066666-53.638095v-195.047619c0-53.638095 43.885714-97.52381 97.523809-97.52381z" fill="#ffffff" p-id="3987"></path><path d="M819.2 699.733333c-70.704762 73.142857-165.790476 121.904762-273.066667 131.657143-19.504762 2.438095-34.133333 17.066667-31.695238 36.571429 0 21.942857 19.504762 39.009524 39.009524 36.571428 129.219048-12.190476 246.247619-73.142857 329.142857-163.352381-26.819048-7.314286-48.761905-21.942857-63.390476-41.447619z" fill="#ffffff" p-id="3988"></path><path d="M1024 512c0-34.133333-2.438095-70.704762-9.752381-102.4-2.438095-17.066667-7.314286-34.133333-12.190476-48.761905s-9.752381-31.695238-17.066667-46.323809c-12.190476-31.695238-29.257143-58.514286-46.323809-87.771429-9.752381-14.628571-19.504762-26.819048-29.257143-39.009524-9.752381-12.190476-21.942857-24.380952-34.133334-36.571428-24.380952-24.380952-48.761905-43.885714-75.580952-63.390476C716.8 31.695238 616.838095 0 512 0S307.2 31.695238 226.742857 87.771429c-29.257143 17.066667-53.638095 39.009524-75.580952 63.390476-12.190476 12.190476-21.942857 24.380952-34.133334 36.571428-9.752381 12.190476-19.504762 24.380952-29.257142 39.009524-19.504762 26.819048-34.133333 56.07619-46.32381 87.771429-7.314286 14.628571-12.190476 31.695238-17.066667 46.323809s-9.752381 31.695238-12.190476 48.761905C2.438095 441.295238 0 477.866667 0 512v256c0 53.638095 43.885714 97.52381 97.52381 97.52381h24.380952c7.314286 0 12.190476 0 19.504762-2.438096 26.819048-4.87619 48.761905-19.504762 60.952381-41.447619 9.752381-14.628571 17.066667-34.133333 17.066666-53.638095v-195.047619c0-53.638095-43.885714-97.52381-97.523809-97.52381H75.580952C92.647619 251.12381 282.819048 73.142857 512 73.142857s419.352381 177.980952 436.419048 402.285714H902.095238c-53.638095 0-97.52381 43.885714-97.523809 97.52381v195.047619c0 19.504762 7.314286 39.009524 17.066666 53.638095 14.628571 21.942857 36.571429 36.571429 60.952381 41.447619 4.87619 0 12.190476 2.438095 19.504762 2.438096h24.380952c53.638095 0 97.52381-43.885714 97.52381-97.52381V536.380952v-7.314285-17.066667z" fill="#ffffff" p-id="3989"></path><path d="M585.142857 926.47619h-146.285714c-39.009524 0-73.142857-31.695238-73.142857-73.142857 0-39.009524 31.695238-73.142857 73.142857-73.142857h146.285714c39.009524 0 73.142857 31.695238 73.142857 73.142857s-31.695238 73.142857-73.142857 73.142857z" fill="#ffffff" p-id="3990"></path></svg>