<?xml version="1.0" standalone="no"?><!DOCTYPE svg PUBLIC "-//W3C//DTD SVG 1.1//EN" "http://www.w3.org/Graphics/SVG/1.1/DTD/svg11.dtd"><svg t="1589514434840" class="icon" viewBox="0 0 1024 1024" version="1.1" xmlns="http://www.w3.org/2000/svg" p-id="7743" xmlns:xlink="http://www.w3.org/1999/xlink" width="200" height="200"><defs><style type="text/css"></style></defs><path d="M512 512m-512 0a512 512 0 1 0 1024 0 512 512 0 1 0-1024 0Z" fill="#ffffff" p-id="7744"></path><path d="M360 819.2V332.8H169.6c-7.2 0-12.8 5.6-12.8 12.8v460.8c0 7.2 5.6 12.8 12.8 12.8H360z" fill="#ffffff" p-id="7745"></path><path d="M372.8 832H169.6c-14.4 0-25.6-11.2-25.6-25.6V345.6c0-14.4 11.2-25.6 25.6-25.6h203.2v512zM169.6 345.6v460.8h177.6V345.6H169.6z" fill="#ffffff" p-id="7746"></path><path d="M664 332.8v486.4h190.4c7.2 0 12.8-5.6 12.8-12.8V345.6c0-7.2-5.6-12.8-12.8-12.8H664z" fill="#ffffff" p-id="7747"></path><path d="M854.4 832H651.2V320h203.2c14.4 0 25.6 11.2 25.6 25.6v460.8c0 14.4-11.2 25.6-25.6 25.6z m-177.6-25.6h177.6V345.6H676.8v460.8z" fill="#ffffff" p-id="7748"></path><path d="M360 199.2v620h304V199.2L512 99.2 360 199.2z" fill="#ffffff" p-id="7749"></path><path d="M676.8 832H347.2V192L512 84 676.8 192v640z m-304-25.6h278.4V205.6L512 114.4 372.8 205.6v600.8z" fill="#ffffff" p-id="7750"></path><path d="M575.2 315.2v-4.8H448.8v4.8h60.8v56h-60.8v4.8h60.8v61.6h4.8V376h60.8v-4.8h-60.8v-56h60.8z m-61.6-12.8l44.8-44.8-4-4-40.8 40.8-40.8-40.8-4 4 44.8 44.8z" fill="#ffffff" p-id="7751"></path><path d="M527.2 450.4h-30.4v-61.6h-60.8v-30.4h60.8V328h-60.8v-31.2h54.4l-39.2-39.2 21.6-21.6 40.8 40.8 41.6-40.8 21.6 21.6-39.2 39.2h50.4V328h-60.8v30.4h60.8v30.4h-60.8z" fill="#ffffff" p-id="7752"></path><path d="M220 422.4H296c14.4 0 25.6 11.2 25.6 25.6v76.8c0 14.4-11.2 25.6-25.6 25.6h-76c-14.4 0-25.6-11.2-25.6-25.6V448c0-14.4 12-25.6 25.6-25.6z" fill="#ffffff" p-id="7753"></path><path d="M728 422.4h76c14.4 0 25.6 11.2 25.6 25.6v76.8c0 14.4-11.2 25.6-25.6 25.6H728c-14.4 0-25.6-11.2-25.6-25.6V448c0-14.4 11.2-25.6 25.6-25.6z" fill="#ffffff" p-id="7754"></path><path d="M575.2 832H448.8V652.8c0-14.4 11.2-25.6 25.6-25.6h76c14.4 0 25.6 11.2 25.6 25.6V832z m-100.8-25.6h76V652.8h-76v153.6z" fill="#ffffff" p-id="7755"></path></svg>