<?xml version="1.0" standalone="no"?><!DOCTYPE svg PUBLIC "-//W3C//DTD SVG 1.1//EN" "http://www.w3.org/Graphics/SVG/1.1/DTD/svg11.dtd"><svg t="1588749547654" class="icon" viewBox="0 0 1024 1024" version="1.1" xmlns="http://www.w3.org/2000/svg" p-id="3862" xmlns:xlink="http://www.w3.org/1999/xlink" width="200" height="200"><defs><style type="text/css"></style></defs><path d="M520.567467 779.776c29.354667 0 57.924267 11.093333 78.4384 30.4128l8.942933 9.5232c11.1616 11.946667 33.792 17.6128 49.834667 11.8784 0 0 14.062933-5.188267 45.090133-22.869333 30.583467-17.5104 42.052267-27.067733 42.154667-27.170134 13.141333-10.990933 19.592533-32.802133 14.677333-48.878933l-2.9696-9.693867c-7.2704-30.378667-2.901333-60.279467 11.912533-85.7088a115.3024 115.3024 0 0 1 65.467734-52.3264l12.9024-3.003733c16.384-3.754667 32.221867-20.206933 35.259733-36.693333 0-0.2048 2.594133-14.813867 2.594133-50.449067-0.170667-35.4304-2.730667-50.107733-2.730666-50.2784l26.453333-4.778667-26.487467 4.7104c-2.935467-16.315733-18.944-33.0752-34.952533-36.5568l-11.9808-2.798933a115.370667 115.370667 0 0 1-66.798933-52.462933 114.176 114.176 0 0 1-12.731734-83.0464l0.682667-2.491734 3.515733-10.4448c4.778667-15.428267-1.706667-37.341867-14.677333-48.3328-0.068267-0.068267-11.5712-9.557333-42.530133-27.374933-30.993067-17.681067-44.782933-22.801067-44.919467-22.869333-15.189333-5.5296-38.434133 0.1024-49.7664 12.049066l-8.055467 8.567467c-21.367467 20.1728-49.493333 31.266133-79.223466 31.266133-29.320533 0-57.856-11.025067-78.267734-30.242133l-9.1136-9.6256c-11.332267-12.117333-34.133333-17.578667-49.834666-11.946667-1.160533 0.4096-15.121067 5.802667-45.124267 22.9376-30.583467 17.646933-41.984 27.170133-42.120533 27.272534-13.141333 10.9568-19.592533 32.768-14.677334 48.810666l3.413334 11.0592a114.688 114.688 0 0 1-12.356267 84.343467 114.449067 114.449067 0 0 1-65.399467 52.224l-13.141333 3.037867c-16.384 3.720533-32.221867 20.206933-35.259733 36.6592-0.068267 0.341333-2.594133 14.779733-2.594134 50.346666 0 35.4304 2.525867 49.937067 2.56 50.0736 3.003733 16.861867 18.705067 33.314133 35.054934 36.898134l9.557333 2.116266c30.378667 8.874667 54.272 27.648 69.12 53.384534 14.609067 25.361067 19.2512 55.569067 12.629333 82.909866l-3.4816 11.946667c-5.0176 16.2816 1.467733 38.229333 14.404267 49.152 0 0 11.5712 9.6256 42.496 27.374933 30.651733 17.544533 44.475733 22.7328 45.056 22.9376 15.0528 5.461333 38.331733-0.136533 49.698133-12.117333l7.611734-8.123733a115.8144 115.8144 0 0 1 79.6672-31.607467zM643.584 887.466667c-28.672 0-56.695467-11.707733-75.025067-31.300267l-7.7824-8.328533c-9.386667-8.8064-24.507733-14.5408-40.209066-14.5408-15.633067 0-30.549333 5.802667-42.0864 16.384l-5.802667 6.314666c-26.282667 27.716267-72.430933 38.7072-107.7248 25.838934-4.334933-1.604267-20.855467-8.192-53.282133-26.760534-33.723733-19.3536-47.9232-30.8224-50.449067-32.904533-29.320533-24.8832-42.325333-69.188267-31.095467-105.472l3.072-10.308267c3.072-12.834133 0.477867-28.808533-7.406933-42.427733a60.962133 60.962133 0 0 0-35.908267-28.228267l-7.748266-1.672533c-37.410133-8.192-69.563733-41.642667-76.322134-79.530667-0.273067-1.4336-3.413333-18.773333-3.413333-59.6992 0-41.0624 3.140267-58.436267 3.549867-60.279466 6.826667-37.102933 38.843733-70.417067 76.117333-78.916267l11.502933-2.594133c12.151467-3.652267 24.576-13.755733 32.494934-27.306667 7.714133-13.312 10.069333-29.047467 6.690133-44.407467l-2.628267-8.430933c-11.264-36.6592 1.9456-80.896 31.232-105.335467 1.024-0.887467 14.6432-12.424533 50.0736-32.8704 32.290133-18.432 49.083733-25.156267 53.4528-26.794666 36.522667-13.038933 81.681067-2.218667 107.758934 25.668266l7.918933 8.430934c9.352533 8.772267 24.405333 14.4384 40.106667 14.4384 15.598933 0 30.378667-5.666133 41.642666-16.042667l6.314667-6.826667c26.282667-27.648 72.430933-38.570667 107.588267-25.770666 2.901333 1.058133 19.319467 7.3728 53.248 26.760533 34.577067 19.831467 48.264533 31.061333 50.688 33.0752 29.149867 24.746667 42.154667 69.051733 30.9248 105.301333l-3.208534 9.728c-3.072 14.6432-0.580267 29.934933 7.099734 43.2128 7.714133 13.2096 20.138667 23.074133 34.952533 27.7504l8.977067 2.048c37.205333 8.123733 69.358933 41.506133 76.151466 79.36 0.6144 3.310933 3.413333 20.923733 3.618134 59.630934 0 39.799467-2.935467 57.2416-3.4816 60.347733-6.894933 37.2736-38.912 70.587733-76.117334 79.086933l-10.171733 2.321067a61.0304 61.0304 0 0 0-33.655467 27.648 60.757333 60.757333 0 0 0-6.587733 44.9536l2.56 8.055467c11.127467 36.522667-2.048 80.759467-31.300267 105.233066-1.058133 0.9216-14.779733 12.526933-50.244266 32.836267-33.9968 19.3536-50.619733 25.736533-53.589334 26.794667a96.256 96.256 0 0 1-32.4608 5.5296h-0.034133zM520.533333 393.898667c-60.416 0-109.568 49.152-109.568 109.568s49.152 109.568 109.568 109.568 109.568-49.152 109.568-109.568-49.152-109.568-109.568-109.568z m0 271.701333a162.304 162.304 0 0 1-162.133333-162.133333c0-89.429333 72.704-162.133333 162.133333-162.133334 89.3952 0 162.133333 72.704 162.133334 162.133334 0 89.3952-72.738133 162.133333-162.133334 162.133333z" p-id="3863" fill="#ffffff"></path></svg>