<?xml version="1.0" standalone="no"?><!DOCTYPE svg PUBLIC "-//W3C//DTD SVG 1.1//EN" "http://www.w3.org/Graphics/SVG/1.1/DTD/svg11.dtd"><svg t="1589183785455" class="icon" viewBox="0 0 1024 1024" version="1.1" xmlns="http://www.w3.org/2000/svg" p-id="4362" xmlns:xlink="http://www.w3.org/1999/xlink" width="200" height="200"><defs><style type="text/css"></style></defs><path d="M523.869091 538.810182H286.673455a98.536727 98.536727 0 0 0-98.443637 98.490182v305.291636a34.909091 34.909091 0 0 1-69.818182 0v-305.291636a168.494545 168.494545 0 0 1 168.261819-168.308364h237.195636a168.494545 168.494545 0 0 1 168.261818 168.308364 34.909091 34.909091 0 0 1-69.818182 0 98.536727 98.536727 0 0 0-98.443636-98.490182zM225.885091 225.931636C225.885091 127.022545 306.362182 46.545455 405.271273 46.545455s179.386182 80.477091 179.386182 179.386181c0 98.955636-80.477091 179.432727-179.386182 179.432728S225.885091 324.887273 225.885091 225.931636z m69.818182 0c0 60.462545 49.152 109.614545 109.568 109.614546s109.568-49.198545 109.568-109.614546S465.687273 116.363636 405.271273 116.363636 295.703273 165.515636 295.703273 225.931636zM905.588364 776.378182a34.769455 34.769455 0 0 0-10.24-24.669091l-130.978909-130.932364a34.955636 34.955636 0 0 0-49.384728 49.384728l71.354182 71.307636h-183.668364a34.909091 34.909091 0 0 0 0 69.818182h183.71491l-71.400728 71.400727a34.909091 34.909091 0 0 0 49.338182 49.384727l130.978909-130.978909a34.909091 34.909091 0 0 0 10.286546-24.715636z" p-id="4363" fill="#ffffff"></path></svg>