<?xml version="1.0" standalone="no"?><!DOCTYPE svg PUBLIC "-//W3C//DTD SVG 1.1//EN" "http://www.w3.org/Graphics/SVG/1.1/DTD/svg11.dtd"><svg t="1589183799325" class="icon" viewBox="0 0 1051 1024" version="1.1" xmlns="http://www.w3.org/2000/svg" p-id="4625" xmlns:xlink="http://www.w3.org/1999/xlink" width="205.2734375" height="200"><defs><style type="text/css"></style></defs><path d="M970.89123313 392.224655h-891.81369563a21.04952625 21.04952625 0 0 1-20.98144875-20.98144875l-25.869405-198.4864125a20.64106219 20.64106219 0 0 1 0.81692906-9.53083312 21.06314156 21.06314156 0 0 1 19.82413313-14.07840282h944.26050937a21.06314156 21.06314156 0 0 1 19.82413407 14.10563344 20.64106219 20.64106219 0 0 1 0.81692812 9.53083313l-25.869405 198.48641343a21.04952625 21.04952625 0 0 1-21.00867937 20.95421719z" p-id="4626" fill="#ffffff"></path><path d="M295.49553313 32m49.92795093 0l325.92727125 0q49.92795187 0 49.92795094 49.92795187l0 137.08061438q0 49.92795187-49.92795094 49.92795188l-325.92727125 0q-49.92795187 0-49.92795094-49.92795188l0-137.08061437q0-49.92795187 49.92795094-49.92795188Z" p-id="4627" fill="#ffffff"></path><path d="M881.19247531 271.56430438H168.80352687a42.61644094 42.61644094 0 0 0-42.49390218 42.49390218l34.97815875 635.43427688a42.61644094 42.61644094 0 0 0 42.49390125 42.45305437h642.43263187a42.61644094 42.61644094 0 0 0 42.49390125-42.49390125l34.97815875-635.43427687a42.61644094 42.61644094 0 0 0-42.49390125-42.45305532zM623.47874094 723.36665375a28.93288688 28.93288688 0 0 1-40.45158-5.32365188l-58.02916031-75.57950812-57.97469813 75.620355a28.93288688 28.93288688 0 0 1-40.45158 5.33726625 28.93288688 28.93288688 0 0 1-5.33726625-40.45158l67.39660781-87.90151406-67.43745468-87.8334375a28.8539175 28.8539175 0 0 1 45.77523187-35.14154438l58.02915938 75.56589281 57.97469812-75.62035499a28.93288688 28.93288688 0 0 1 40.45158-5.33726626 28.93288688 28.93288688 0 0 1 5.33726625 40.45158l-67.39660688 87.901515 67.43745375 87.81982125a28.93288688 28.93288688 0 0 1-5.32365093 40.49242688z" p-id="4628" fill="#ffffff"></path></svg>